<svg width="400" height="400" viewBox="0 0 400 400" fill="none" xmlns="http://www.w3.org/2000/svg">
<circle cx="200" cy="200" r="200" fill="#C4C4C4"/>
<circle cx="200" cy="200" r="159" stroke="#848484" stroke-width="2"/>
<circle cx="200" cy="200" r="139" stroke="#848484" stroke-width="2"/>
<circle cx="200" cy="200" r="119" stroke="#848484" stroke-width="2"/>
<circle cx="200" cy="200" r="99" stroke="#848484" stroke-width="2"/>
<circle cx="200" cy="200" r="79" stroke="#848484" stroke-width="2"/>
<circle cx="200" cy="200" r="59" stroke="#848484" stroke-width="2"/>
<circle cx="200" cy="200" r="39" stroke="#848484" stroke-width="2"/>
<circle cx="200" cy="200" r="19" fill="#A4A4A4" stroke="#848484" stroke-width="2"/>
<circle cx="199.5" cy="200.5" r="6.5" fill="black" stroke="black" stroke-width="2"/>
<circle cx="200" cy="200" r="179" stroke="#848484" stroke-width="2"/>
<path d="M222.377 208.573C223.8 211.651 223.35 226.163 220.773 220.59C218.195 215.017 213.155 219.603 210.577 214.03C209.154 210.952 210.641 207.235 213.9 205.728C217.158 204.222 220.953 205.495 222.377 208.573Z" fill="black"/>
<path d="M205.373 241.26C203.515 244.097 190.964 251.395 194.328 246.258C197.693 241.122 191.134 239.272 194.499 234.136C196.357 231.3 200.298 230.595 203.301 232.562C206.304 234.529 207.232 238.423 205.373 241.26Z" fill="black"/>
<path d="M166.764 177.476C164.544 174.912 160.959 160.843 164.978 165.485C168.998 170.126 172.572 164.324 176.591 168.965C178.811 171.529 178.411 175.512 175.697 177.862C172.984 180.212 168.984 180.039 166.764 177.476Z" fill="black"/>
<path d="M224.36 171.351C226.768 168.963 240.563 164.437 236.203 168.761C231.843 173.084 237.874 176.258 233.514 180.582C231.106 182.97 227.105 182.839 224.577 180.29C222.049 177.741 221.952 173.739 224.36 171.351Z" fill="black"/>
<path d="M186.185 214.162C183.414 216.117 169.059 218.291 174.076 214.751C179.093 211.211 173.674 207.08 178.691 203.54C181.461 201.585 185.385 202.378 187.455 205.311C189.525 208.244 188.956 212.207 186.185 214.162Z" fill="black"/>
<path d="M193.091 180.151C194.246 176.962 204.779 166.97 202.688 172.743C200.597 178.516 207.405 178.805 205.314 184.578C204.159 187.767 200.487 189.36 197.111 188.138C193.736 186.915 191.936 183.339 193.091 180.151Z" fill="black"/>
</svg>
